<svg width="142" height="706" viewBox="0 0 142 706" fill="none" xmlns="http://www.w3.org/2000/svg">
<path d="M90.3194 21.0461C85.6568 23.5288 80.0295 20.1498 80.0295 14.8675V7C80.0295 3.13401 76.8955 0 73.0295 0H69.212C65.346 0 62.212 3.13401 62.212 7.00001V14.8676C62.212 20.15 56.5846 23.529 51.922 21.0463L45.2618 17.5C41.4883 15.4907 36.8109 17.3036 35.3772 21.3312L33.7569 25.8833C32.5935 29.1516 33.9994 32.7789 37.0616 34.4094L58.5019 45.8258C60.7853 47.0416 62.212 49.4176 62.212 52.0045V53.6786C62.212 58.9609 56.5846 62.3399 51.922 59.8572L35.4173 51.069C31.6438 49.0597 26.9663 50.8726 25.5327 54.9002L23.9123 59.4523C22.7489 62.7206 24.1549 66.3479 27.217 67.9784L58.5019 84.6367C60.7853 85.8525 62.212 88.2285 62.212 90.8154V93.3398C62.212 98.6222 56.5846 102.001 51.922 99.5185L27.9156 86.7358C24.1421 84.7265 19.4646 86.5395 18.031 90.5671L16.4106 95.1191C15.2473 98.3874 16.6532 102.015 19.7153 103.645L58.5019 124.298C60.7853 125.514 62.212 127.89 62.212 130.477V133.233C62.212 138.516 56.5846 141.895 51.922 139.412L18.6656 121.704C14.892 119.694 10.2146 121.507 8.78092 125.535L7.16057 130.087C5.9972 133.355 7.40315 136.983 10.4653 138.613L58.5019 164.191C60.7853 165.407 62.212 167.783 62.212 170.37V171.468C62.212 176.75 56.5846 180.129 51.922 177.646L12.5298 156.671C8.75626 154.662 4.07879 156.475 2.64514 160.502L1.0248 165.054C-0.138573 168.323 1.26738 171.95 4.3295 173.581L58.9938 202.688C60.9744 203.742 62.212 205.803 62.212 208.047V208.047C62.212 212.629 57.3306 215.56 53.2862 213.407L12.5298 191.705C8.75626 189.696 4.07879 191.509 2.64514 195.536L1.0248 200.089C-0.138573 203.357 1.26738 206.984 4.3295 208.615L58.5019 237.46C60.7853 238.676 62.212 241.052 62.212 243.639V246.365C62.212 251.647 56.5846 255.026 51.922 252.544L12.5298 231.568C8.75626 229.559 4.07879 231.372 2.64514 235.4L1.02479 239.952C-0.138575 243.22 1.26738 246.847 4.3295 248.478L58.9275 277.55C60.9489 278.626 62.212 280.729 62.212 283.02V283.02C62.212 287.696 57.23 290.688 53.1022 288.49L12.5298 266.886C8.75626 264.877 4.07879 266.69 2.64514 270.717L1.0248 275.269C-0.138573 278.538 1.26738 282.165 4.3295 283.795L58.6004 312.693C60.8231 313.877 62.212 316.19 62.212 318.708V318.708C62.212 323.85 56.7339 327.14 52.195 324.723L12.5298 303.602C8.75626 301.593 4.07879 303.406 2.64514 307.433L1.0248 311.985C-0.138573 315.254 1.26738 318.881 4.3295 320.512L58.5019 349.357C60.7853 350.573 62.212 352.949 62.212 355.535V357.912C62.212 363.194 56.5846 366.573 51.922 364.091L12.5298 343.115C8.75626 341.106 4.07879 342.919 2.64514 346.947L1.0248 351.499C-0.138573 354.767 1.26737 358.394 4.32949 360.025L58.5019 388.87C60.7853 390.086 62.212 392.462 62.212 395.049V399.524C62.212 404.806 56.5846 408.185 51.922 405.702L12.5298 384.727C8.75626 382.718 4.07879 384.531 2.64514 388.559L1.0248 393.111C-0.138573 396.379 1.26737 400.006 4.32949 401.637L58.6822 430.578C60.8546 431.735 62.212 433.995 62.212 436.456V436.456C62.212 441.482 56.8579 444.697 52.4219 442.335L12.5298 421.094C8.75626 419.084 4.07879 420.897 2.64514 424.925L1.0248 429.477C-0.138573 432.745 1.26737 436.373 4.32949 438.003L58.5019 466.848C60.7853 468.064 62.212 470.44 62.212 473.027V476.57C62.212 481.852 56.5846 485.231 51.922 482.748L18.2206 464.803C14.447 462.794 9.76956 464.607 8.33591 468.634L6.71557 473.187C5.5522 476.455 6.95814 480.082 10.0203 481.713L58.9259 507.754C60.9483 508.83 62.212 510.935 62.212 513.226V513.226C62.212 517.905 57.2276 520.898 53.0978 518.699L26.9666 504.785C23.1931 502.775 18.5156 504.588 17.082 508.616L15.4616 513.168C14.2982 516.436 15.7042 520.064 18.7663 521.694L58.5019 542.852C60.7853 544.068 62.212 546.444 62.212 549.031V549.646C62.212 554.929 56.5846 558.308 51.922 555.825L42.0954 550.593C38.3218 548.583 33.6444 550.396 32.2107 554.424L30.5904 558.976C29.427 562.244 30.8329 565.872 33.8951 567.502L58.5019 580.605C60.7853 581.82 62.212 584.196 62.212 586.783L62.2119 698.284C62.2119 702.15 65.3459 705.284 69.2119 705.284H73.0294C76.8954 705.284 80.0294 702.15 80.0294 698.284L80.0294 586.783C80.0294 584.196 81.4561 581.82 83.7395 580.605L108.346 567.502C111.408 565.872 112.814 562.244 111.651 558.976L110.031 554.424C108.597 550.396 103.92 548.583 100.146 550.593L90.3194 555.825C85.6568 558.308 80.0294 554.929 80.0294 549.646V549.031C80.0294 546.444 81.4561 544.068 83.7395 542.852L123.475 521.694C126.537 520.064 127.943 516.436 126.78 513.168L125.159 508.616C123.726 504.588 119.048 502.775 115.275 504.785L89.1436 518.699C85.0138 520.898 80.0294 517.905 80.0294 513.226V513.226C80.0294 510.935 81.2931 508.83 83.3155 507.753L132.221 481.713C135.283 480.082 136.689 476.455 135.526 473.186L133.905 468.634C132.472 464.607 127.794 462.794 124.021 464.803L90.3194 482.748C85.6568 485.231 80.0294 481.852 80.0294 476.569V473.027C80.0294 470.44 81.4561 468.064 83.7395 466.848L137.912 438.003C140.974 436.372 142.38 432.745 141.216 429.477L139.596 424.925C138.162 420.897 133.485 419.084 129.711 421.093L89.8195 442.335C85.3835 444.697 80.0294 441.482 80.0294 436.456V436.456C80.0294 433.995 81.3868 431.735 83.5592 430.578L137.912 401.637C140.974 400.006 142.38 396.379 141.216 393.111L139.596 388.558C138.162 384.531 133.485 382.718 129.711 384.727L90.3194 405.702C85.6568 408.185 80.0295 404.806 80.0295 399.524V395.049C80.0295 392.462 81.4561 390.086 83.7395 388.87L137.912 360.025C140.974 358.394 142.38 354.767 141.216 351.499L139.596 346.947C138.162 342.919 133.485 341.106 129.711 343.115L90.3194 364.091C85.6568 366.573 80.0295 363.194 80.0295 357.912V355.535C80.0295 352.948 81.4561 350.572 83.7395 349.357L137.912 320.511C140.974 318.881 142.38 315.254 141.216 311.985L139.596 307.433C138.162 303.406 133.485 301.593 129.711 303.602L90.0464 324.722C85.5076 327.139 80.0295 323.85 80.0295 318.708V318.708C80.0295 316.189 81.4183 313.877 83.6411 312.693L137.912 283.795C140.974 282.165 142.38 278.538 141.216 275.269L139.596 270.717C138.162 266.69 133.485 264.877 129.711 266.886L89.1392 288.489C85.0114 290.687 80.0295 287.696 80.0295 283.019V283.019C80.0295 280.729 81.2925 278.626 83.314 277.549L137.912 248.478C140.974 246.847 142.38 243.22 141.216 239.952L139.596 235.399C138.162 231.372 133.485 229.559 129.711 231.568L90.3194 252.543C85.6568 255.026 80.0295 251.647 80.0295 246.365V243.638C80.0295 241.052 81.4561 238.676 83.7395 237.46L137.912 208.615C140.974 206.984 142.38 203.357 141.216 200.088L139.596 195.536C138.162 191.509 133.485 189.696 129.711 191.705L88.9552 213.407C84.9108 215.56 80.0295 212.629 80.0295 208.047V208.047C80.0295 205.803 81.267 203.742 83.2476 202.688L137.912 173.58C140.974 171.95 142.38 168.323 141.216 165.054L139.596 160.502C138.162 156.475 133.485 154.662 129.711 156.671L90.3194 177.646C85.6568 180.129 80.0295 176.75 80.0295 171.468V170.37C80.0295 167.783 81.4561 165.407 83.7395 164.191L131.776 138.613C134.838 136.983 136.244 133.355 135.081 130.087L133.46 125.535C132.027 121.507 127.349 119.694 123.576 121.704L90.3194 139.412C85.6568 141.894 80.0295 138.515 80.0295 133.233V130.476C80.0295 127.89 81.4561 125.514 83.7395 124.298L122.526 103.645C125.588 102.015 126.994 98.3873 125.83 95.1191L124.21 90.567C122.776 86.5394 118.099 84.7264 114.325 86.7357L90.3194 99.5183C85.6568 102.001 80.0295 98.622 80.0295 93.3396V90.8153C80.0295 88.2284 81.4561 85.8525 83.7395 84.6366L115.024 67.9783C118.086 66.3478 119.492 62.7205 118.329 59.4522L116.709 54.9001C115.275 50.8726 110.598 49.0596 106.824 51.0689L90.3194 59.8571C85.6568 62.3398 80.0295 58.9608 80.0295 53.6785V52.0043C80.0295 49.4174 81.4561 47.0414 83.7395 45.8256L105.18 34.4093C108.242 32.7788 109.648 29.1515 108.484 25.8832L106.864 21.3312C105.43 17.3036 100.753 15.4906 96.9793 17.4999L90.3194 21.0461Z" fill="url(#paint0_linear_290_1258)"/>
<defs>
<linearGradient id="paint0_linear_290_1258" x1="71.1206" y1="0" x2="71" y2="579" gradientUnits="userSpaceOnUse">
<stop stop-color="#00C6C6"/>
<stop offset="1" stop-color="#006060" stop-opacity="0.7"/>
</linearGradient>
</defs>
</svg>
